<svg width="20" height="20" viewBox="0 0 20 20" fill="none" xmlns="http://www.w3.org/2000/svg">
<path d="M15 8.33329H7.50004V5.83329C7.50004 4.45496 8.62171 3.33329 10 3.33329C11.3784 3.33329 12.5 4.45496 12.5 5.83329H14.1667C14.1667 3.53579 12.2975 1.66663 10 1.66663C7.70254 1.66663 5.83337 3.53579 5.83337 5.83329V8.33329H5.00004C4.55801 8.33329 4.13409 8.50889 3.82153 8.82145C3.50897 9.13401 3.33337 9.55793 3.33337 9.99996V16.6666C3.33337 17.1087 3.50897 17.5326 3.82153 17.8451C4.13409 18.1577 4.55801 18.3333 5.00004 18.3333H15C15.4421 18.3333 15.866 18.1577 16.1786 17.8451C16.4911 17.5326 16.6667 17.1087 16.6667 16.6666V9.99996C16.6667 9.55793 16.4911 9.13401 16.1786 8.82145C15.866 8.50889 15.4421 8.33329 15 8.33329ZM8.38421 12.9158C8.48664 12.5237 8.72832 12.1822 9.06411 11.9552C9.39989 11.7283 9.80682 11.6313 10.2089 11.6824C10.6109 11.7336 10.9806 11.9293 11.2489 12.2331C11.5172 12.5369 11.6657 12.928 11.6667 13.3333C11.6662 13.6247 11.5889 13.9109 11.4426 14.163C11.2963 14.4151 11.0862 14.6241 10.8334 14.7691V16.6666H9.16671V14.7691C8.85139 14.5885 8.60408 14.3093 8.46272 13.9745C8.32137 13.6397 8.29379 13.2678 8.38421 12.9158Z" fill="#DADADA"/>
</svg>
