<svg width="20" height="20" viewBox="0 0 20 20" fill="none" xmlns="http://www.w3.org/2000/svg">
<path d="M18.4023 9.49617C17.7157 8.04968 16.8987 6.87 15.9512 5.95711L14.9574 6.95086C15.7678 7.72527 16.4736 8.73836 17.084 10.0001C15.459 13.3634 13.1523 14.961 9.99999 14.961C9.05377 14.961 8.18222 14.8153 7.38534 14.5239L6.30858 15.6007C7.41536 16.1117 8.64582 16.3673 9.99999 16.3673C13.7539 16.3673 16.5547 14.4122 18.4023 10.502C18.4766 10.3448 18.5151 10.173 18.5151 9.9991C18.5151 9.82518 18.4766 9.65342 18.4023 9.49617ZM17.1607 3.23367L16.3281 2.40007C16.3136 2.38555 16.2964 2.37402 16.2774 2.36616C16.2584 2.3583 16.2381 2.35425 16.2176 2.35425C16.197 2.35425 16.1767 2.3583 16.1577 2.36616C16.1388 2.37402 16.1215 2.38555 16.107 2.40007L13.9709 4.53523C12.7932 3.93367 11.4695 3.63289 9.99999 3.63289C6.24608 3.63289 3.4453 5.58796 1.59765 9.49812C1.52338 9.65538 1.48486 9.82714 1.48486 10.0011C1.48486 10.175 1.52338 10.3467 1.59765 10.504C2.3358 12.0587 3.22447 13.3048 4.26366 14.2425L2.19687 16.3087C2.16759 16.338 2.15114 16.3777 2.15114 16.4191C2.15114 16.4605 2.16759 16.5003 2.19687 16.5296L3.03065 17.3634C3.05995 17.3926 3.09968 17.4091 3.1411 17.4091C3.18253 17.4091 3.22225 17.3926 3.25155 17.3634L17.1607 3.45476C17.1753 3.44025 17.1868 3.42302 17.1946 3.40405C17.2025 3.38508 17.2066 3.36475 17.2066 3.34421C17.2066 3.32368 17.2025 3.30335 17.1946 3.28438C17.1868 3.26541 17.1753 3.24818 17.1607 3.23367ZM2.91601 10.0001C4.54296 6.63679 6.8496 5.03914 9.99999 5.03914C11.0652 5.03914 12.0338 5.22195 12.9125 5.59363L11.5394 6.96668C10.8892 6.61973 10.1446 6.49097 9.41563 6.59938C8.68662 6.7078 8.01176 7.04765 7.4906 7.56881C6.96944 8.08996 6.62959 8.76483 6.52117 9.49383C6.41276 10.2228 6.54152 10.9674 6.88847 11.6177L5.25917 13.2469C4.35741 12.4511 3.58007 11.3727 2.91601 10.0001ZM7.73437 10.0001C7.73471 9.65567 7.81629 9.3162 7.97247 9.00925C8.12866 8.70229 8.35505 8.43651 8.63326 8.23349C8.91146 8.03047 9.23363 7.89594 9.5736 7.84082C9.91356 7.78571 10.2617 7.81156 10.5898 7.91629L7.83808 10.668C7.76911 10.4521 7.73412 10.2268 7.73437 10.0001Z" fill="white"/>
<path d="M9.9219 12.1875C9.85432 12.1875 9.78772 12.1844 9.7217 12.1783L8.69006 13.21C9.31055 13.4476 9.98659 13.5004 10.6364 13.362C11.2863 13.2236 11.8822 12.8999 12.352 12.4301C12.8218 11.9603 13.1455 11.3644 13.2839 10.7146C13.4223 10.0647 13.3695 9.38868 13.1318 8.76819L12.1002 9.79983C12.1063 9.86584 12.1094 9.93245 12.1094 10C12.1095 10.2873 12.0531 10.5719 11.9432 10.8373C11.8333 11.1028 11.6722 11.344 11.469 11.5472C11.2659 11.7503 11.0247 11.9114 10.7592 12.0213C10.4937 12.1312 10.2092 12.1877 9.9219 12.1875Z" fill="white"/>
</svg>
