<svg width="16" height="16" viewBox="0 0 16 16" fill="none" xmlns="http://www.w3.org/2000/svg">
<path d="M14.9467 7.56001L13.7067 6.14001L13.88 4.26001C13.9134 3.92668 13.6867 3.62001 13.3667 3.54668L11.5267 3.13334L10.5667 1.50668C10.3934 1.22001 10.04 1.10001 9.72668 1.23334L8.00002 1.97334L6.27335 1.23334C5.96668 1.10001 5.60668 1.22001 5.44002 1.50668L4.47335 3.12668L2.64002 3.54001C2.31335 3.61334 2.08668 3.91334 2.12002 4.24668L2.29335 6.13334L1.04668 7.56001C0.826683 7.81334 0.826683 8.18668 1.04668 8.44001L2.29335 9.86001L2.12002 11.7467C2.08668 12.08 2.31335 12.3867 2.63335 12.46L4.47335 12.88L5.43335 14.5C5.60668 14.7867 5.96668 14.9067 6.27335 14.7733L8.00002 14.02L9.72668 14.76C10.0333 14.8933 10.3934 14.7733 10.56 14.4867L11.52 12.8667L13.36 12.4467C13.6867 12.3733 13.9067 12.0667 13.8734 11.7333L13.7 9.85334L14.94 8.43334C15.0487 8.31425 15.1095 8.15918 15.1107 7.99796C15.112 7.83673 15.0535 7.68075 14.9467 7.56001ZM6.82002 9.88668L5.40668 8.47334C5.34496 8.41162 5.296 8.33835 5.2626 8.25771C5.2292 8.17706 5.212 8.09063 5.212 8.00334C5.212 7.91606 5.2292 7.82963 5.2626 7.74898C5.296 7.66834 5.34496 7.59507 5.40668 7.53334C5.4684 7.47162 5.54168 7.42266 5.62232 7.38926C5.70296 7.35586 5.7894 7.33866 5.87668 7.33866C5.96397 7.33866 6.0504 7.35586 6.13105 7.38926C6.21169 7.42266 6.28496 7.47162 6.34668 7.53334L7.28668 8.47334L9.64668 6.11334C9.7084 6.05162 9.78168 6.00266 9.86232 5.96926C9.94296 5.93586 10.0294 5.91866 10.1167 5.91866C10.204 5.91866 10.2904 5.93586 10.371 5.96926C10.4517 6.00266 10.525 6.05162 10.5867 6.11334C10.6484 6.17507 10.6974 6.24834 10.7308 6.32898C10.7642 6.40962 10.7814 6.49606 10.7814 6.58334C10.7814 6.67063 10.7642 6.75706 10.7308 6.83771C10.6974 6.91835 10.6484 6.99162 10.5867 7.05334L7.76002 9.88001C7.50668 10.1467 7.08002 10.1467 6.82002 9.88668Z" fill="#32EE2F"/>
</svg>
